<mxfile host="app.diagrams.net" agent="Mozilla/5.0 (X11; Linux x86_64) AppleWebKit/537.36 (KHTML, like Gecko) Chrome/140.0.0.0 Safari/537.36" version="28.2.5">
  <diagram name="Page-1" id="UGlB3OiiK71JkhmK6zcf">
    <mxGraphModel dx="867" dy="880" grid="1" gridSize="10" guides="1" tooltips="1" connect="1" arrows="1" fold="1" page="1" pageScale="1" pageWidth="850" pageHeight="1100" math="0" shadow="0">
      <root>
        <mxCell id="0" />
        <mxCell id="1" parent="0" />
        <mxCell id="TRg9tI72QnR87t56-2dg-31" value="" style="ellipse;whiteSpace=wrap;html=1;" vertex="1" parent="1">
          <mxGeometry x="629" y="365" width="170" height="105" as="geometry" />
        </mxCell>
        <mxCell id="TRg9tI72QnR87t56-2dg-32" value="Node&amp;nbsp;&lt;div&gt;(operator&lt;span style=&quot;background-color: transparent; color: light-dark(rgb(0, 0, 0), rgb(255, 255, 255));&quot;&gt;)&lt;/span&gt;&lt;/div&gt;" style="text;strokeColor=none;fillColor=none;html=1;align=center;verticalAlign=middle;whiteSpace=wrap;rounded=0;fontSize=16;fontStyle=1" vertex="1" parent="1">
          <mxGeometry x="649" y="367" width="130" height="40" as="geometry" />
        </mxCell>
        <mxCell id="TRg9tI72QnR87t56-2dg-30" value="" style="ellipse;whiteSpace=wrap;html=1;" vertex="1" parent="1">
          <mxGeometry x="335" y="275" width="170" height="245" as="geometry" />
        </mxCell>
        <mxCell id="TRg9tI72QnR87t56-2dg-28" value="" style="ellipse;whiteSpace=wrap;html=1;" vertex="1" parent="1">
          <mxGeometry x="40" y="430" width="170" height="105" as="geometry" />
        </mxCell>
        <mxCell id="TRg9tI72QnR87t56-2dg-14" value="" style="ellipse;whiteSpace=wrap;html=1;" vertex="1" parent="1">
          <mxGeometry x="40" y="245" width="170" height="140" as="geometry" />
        </mxCell>
        <mxCell id="TRg9tI72QnR87t56-2dg-3" value="Node&amp;nbsp;&lt;div&gt;(a&lt;span style=&quot;background-color: transparent; color: light-dark(rgb(0, 0, 0), rgb(255, 255, 255));&quot;&gt;rgument)&lt;/span&gt;&lt;/div&gt;" style="text;strokeColor=none;fillColor=none;html=1;align=center;verticalAlign=middle;whiteSpace=wrap;rounded=0;fontSize=16;fontStyle=1" vertex="1" parent="1">
          <mxGeometry x="60" y="255" width="130" height="40" as="geometry" />
        </mxCell>
        <mxCell id="TRg9tI72QnR87t56-2dg-4" value="&lt;b&gt;Set&lt;/b&gt;" style="text;strokeColor=none;fillColor=none;html=1;align=center;verticalAlign=middle;whiteSpace=wrap;rounded=0;fontSize=16;" vertex="1" parent="1">
          <mxGeometry x="70" y="385" width="50" height="40" as="geometry" />
        </mxCell>
        <mxCell id="TRg9tI72QnR87t56-2dg-5" value="&lt;b&gt;Get&lt;/b&gt;" style="text;strokeColor=none;fillColor=none;html=1;align=center;verticalAlign=middle;whiteSpace=wrap;rounded=0;fontSize=16;" vertex="1" parent="1">
          <mxGeometry x="128" y="385" width="50" height="40" as="geometry" />
        </mxCell>
        <mxCell id="TRg9tI72QnR87t56-2dg-19" style="edgeStyle=none;curved=1;rounded=0;orthogonalLoop=1;jettySize=auto;html=1;exitX=1;exitY=0.25;exitDx=0;exitDy=0;entryX=0;entryY=0.25;entryDx=0;entryDy=0;fontSize=12;startSize=8;endSize=8;" edge="1" parent="1" source="TRg9tI72QnR87t56-2dg-8" target="TRg9tI72QnR87t56-2dg-10">
          <mxGeometry relative="1" as="geometry" />
        </mxCell>
        <mxCell id="TRg9tI72QnR87t56-2dg-8" value="Service Client" style="rounded=1;whiteSpace=wrap;html=1;" vertex="1" parent="1">
          <mxGeometry x="70" y="485" width="110" height="30" as="geometry" />
        </mxCell>
        <mxCell id="TRg9tI72QnR87t56-2dg-9" value="Topic Subscriber" style="rounded=1;whiteSpace=wrap;html=1;" vertex="1" parent="1">
          <mxGeometry x="365" y="335" width="110" height="30" as="geometry" />
        </mxCell>
        <mxCell id="TRg9tI72QnR87t56-2dg-20" style="edgeStyle=none;curved=1;rounded=0;orthogonalLoop=1;jettySize=auto;html=1;exitX=0;exitY=0.75;exitDx=0;exitDy=0;entryX=1;entryY=0.75;entryDx=0;entryDy=0;fontSize=12;startSize=8;endSize=8;" edge="1" parent="1" source="TRg9tI72QnR87t56-2dg-10" target="TRg9tI72QnR87t56-2dg-8">
          <mxGeometry relative="1" as="geometry" />
        </mxCell>
        <mxCell id="TRg9tI72QnR87t56-2dg-10" value="Service Server" style="rounded=1;whiteSpace=wrap;html=1;" vertex="1" parent="1">
          <mxGeometry x="365" y="375" width="110" height="30" as="geometry" />
        </mxCell>
        <mxCell id="TRg9tI72QnR87t56-2dg-33" style="edgeStyle=none;curved=1;rounded=0;orthogonalLoop=1;jettySize=auto;html=1;exitX=1;exitY=0.25;exitDx=0;exitDy=0;entryX=0;entryY=0.25;entryDx=0;entryDy=0;fontSize=12;startSize=8;endSize=8;startArrow=classicThin;startFill=1;endArrow=classicThin;endFill=1;" edge="1" parent="1" source="TRg9tI72QnR87t56-2dg-11" target="TRg9tI72QnR87t56-2dg-13">
          <mxGeometry relative="1" as="geometry" />
        </mxCell>
        <mxCell id="TRg9tI72QnR87t56-2dg-35" style="edgeStyle=none;curved=1;rounded=0;orthogonalLoop=1;jettySize=auto;html=1;exitX=1;exitY=0.5;exitDx=0;exitDy=0;fontSize=12;startSize=8;endSize=8;endArrow=classicThin;endFill=1;" edge="1" parent="1" source="TRg9tI72QnR87t56-2dg-11" target="TRg9tI72QnR87t56-2dg-13">
          <mxGeometry relative="1" as="geometry" />
        </mxCell>
        <mxCell id="TRg9tI72QnR87t56-2dg-11" value="Action Server" style="rounded=1;whiteSpace=wrap;html=1;" vertex="1" parent="1">
          <mxGeometry x="365" y="410" width="110" height="40" as="geometry" />
        </mxCell>
        <mxCell id="TRg9tI72QnR87t56-2dg-26" style="edgeStyle=none;curved=1;rounded=0;orthogonalLoop=1;jettySize=auto;html=1;exitX=0.75;exitY=1;exitDx=0;exitDy=0;entryX=0.5;entryY=0;entryDx=0;entryDy=0;fontSize=12;startSize=8;endSize=8;" edge="1" parent="1" source="TRg9tI72QnR87t56-2dg-12" target="TRg9tI72QnR87t56-2dg-24">
          <mxGeometry relative="1" as="geometry" />
        </mxCell>
        <mxCell id="TRg9tI72QnR87t56-2dg-12" value="Parameter Server" style="rounded=1;whiteSpace=wrap;html=1;" vertex="1" parent="1">
          <mxGeometry x="365" y="455" width="110" height="30" as="geometry" />
        </mxCell>
        <mxCell id="TRg9tI72QnR87t56-2dg-13" value="Action Client" style="rounded=1;whiteSpace=wrap;html=1;" vertex="1" parent="1">
          <mxGeometry x="659" y="410" width="110" height="40" as="geometry" />
        </mxCell>
        <mxCell id="TRg9tI72QnR87t56-2dg-18" style="edgeStyle=none;curved=1;rounded=0;orthogonalLoop=1;jettySize=auto;html=1;exitX=1;exitY=0.5;exitDx=0;exitDy=0;entryX=0;entryY=0.5;entryDx=0;entryDy=0;fontSize=12;startSize=8;endSize=8;" edge="1" parent="1" source="TRg9tI72QnR87t56-2dg-6" target="TRg9tI72QnR87t56-2dg-9">
          <mxGeometry relative="1" as="geometry" />
        </mxCell>
        <mxCell id="TRg9tI72QnR87t56-2dg-6" value="Topic Publisher" style="rounded=1;whiteSpace=wrap;html=1;" vertex="1" parent="1">
          <mxGeometry x="70" y="300" width="110" height="30" as="geometry" />
        </mxCell>
        <mxCell id="TRg9tI72QnR87t56-2dg-17" style="edgeStyle=none;curved=1;rounded=0;orthogonalLoop=1;jettySize=auto;html=1;exitX=0.75;exitY=1;exitDx=0;exitDy=0;fontSize=12;startSize=8;endSize=8;" edge="1" parent="1" source="TRg9tI72QnR87t56-2dg-7" target="TRg9tI72QnR87t56-2dg-5">
          <mxGeometry relative="1" as="geometry" />
        </mxCell>
        <mxCell id="TRg9tI72QnR87t56-2dg-7" value="Parameter Server" style="rounded=1;whiteSpace=wrap;html=1;" vertex="1" parent="1">
          <mxGeometry x="70" y="337" width="110" height="30" as="geometry" />
        </mxCell>
        <mxCell id="TRg9tI72QnR87t56-2dg-16" style="edgeStyle=none;curved=1;rounded=0;orthogonalLoop=1;jettySize=auto;html=1;exitX=0.5;exitY=0;exitDx=0;exitDy=0;entryX=0.227;entryY=0.933;entryDx=0;entryDy=0;entryPerimeter=0;fontSize=12;startSize=8;endSize=8;" edge="1" parent="1" source="TRg9tI72QnR87t56-2dg-4" target="TRg9tI72QnR87t56-2dg-7">
          <mxGeometry relative="1" as="geometry" />
        </mxCell>
        <mxCell id="TRg9tI72QnR87t56-2dg-25" style="edgeStyle=none;curved=1;rounded=0;orthogonalLoop=1;jettySize=auto;html=1;exitX=0.5;exitY=0;exitDx=0;exitDy=0;entryX=0.25;entryY=1;entryDx=0;entryDy=0;fontSize=12;startSize=8;endSize=8;" edge="1" parent="1" source="TRg9tI72QnR87t56-2dg-23" target="TRg9tI72QnR87t56-2dg-12">
          <mxGeometry relative="1" as="geometry" />
        </mxCell>
        <mxCell id="TRg9tI72QnR87t56-2dg-23" value="&lt;b&gt;Set&lt;/b&gt;" style="text;strokeColor=none;fillColor=none;html=1;align=center;verticalAlign=middle;whiteSpace=wrap;rounded=0;fontSize=16;" vertex="1" parent="1">
          <mxGeometry x="367" y="510" width="50" height="40" as="geometry" />
        </mxCell>
        <mxCell id="TRg9tI72QnR87t56-2dg-24" value="&lt;b&gt;Get&lt;/b&gt;" style="text;strokeColor=none;fillColor=none;html=1;align=center;verticalAlign=middle;whiteSpace=wrap;rounded=0;fontSize=16;" vertex="1" parent="1">
          <mxGeometry x="423" y="510" width="50" height="40" as="geometry" />
        </mxCell>
        <mxCell id="TRg9tI72QnR87t56-2dg-27" value="Node&amp;nbsp;&lt;div&gt;(operator&lt;span style=&quot;background-color: transparent; color: light-dark(rgb(0, 0, 0), rgb(255, 255, 255));&quot;&gt;)&lt;/span&gt;&lt;/div&gt;" style="text;strokeColor=none;fillColor=none;html=1;align=center;verticalAlign=middle;whiteSpace=wrap;rounded=0;fontSize=16;fontStyle=1" vertex="1" parent="1">
          <mxGeometry x="60" y="435" width="130" height="40" as="geometry" />
        </mxCell>
        <mxCell id="TRg9tI72QnR87t56-2dg-29" value="Node&amp;nbsp;&lt;div&gt;(calculator&lt;span style=&quot;background-color: transparent; color: light-dark(rgb(0, 0, 0), rgb(255, 255, 255));&quot;&gt;)&lt;/span&gt;&lt;/div&gt;" style="text;strokeColor=none;fillColor=none;html=1;align=center;verticalAlign=middle;whiteSpace=wrap;rounded=0;fontSize=16;fontStyle=1" vertex="1" parent="1">
          <mxGeometry x="355" y="279" width="130" height="40" as="geometry" />
        </mxCell>
        <mxCell id="TRg9tI72QnR87t56-2dg-34" style="edgeStyle=none;curved=1;rounded=0;orthogonalLoop=1;jettySize=auto;html=1;exitX=1;exitY=0.75;exitDx=0;exitDy=0;entryX=0;entryY=0.75;entryDx=0;entryDy=0;fontSize=12;startSize=8;endSize=8;startArrow=classicThin;startFill=1;endArrow=classicThin;endFill=1;" edge="1" parent="1" source="TRg9tI72QnR87t56-2dg-11" target="TRg9tI72QnR87t56-2dg-13">
          <mxGeometry relative="1" as="geometry">
            <mxPoint x="500" y="420" as="sourcePoint" />
            <mxPoint x="585" y="420" as="targetPoint" />
          </mxGeometry>
        </mxCell>
        <mxCell id="TRg9tI72QnR87t56-2dg-36" value="1" style="ellipse;whiteSpace=wrap;html=1;aspect=fixed;" vertex="1" parent="1">
          <mxGeometry x="511" y="409" width="20" height="20" as="geometry" />
        </mxCell>
        <mxCell id="TRg9tI72QnR87t56-2dg-37" value="2" style="ellipse;whiteSpace=wrap;html=1;aspect=fixed;" vertex="1" parent="1">
          <mxGeometry x="558" y="420" width="20" height="20" as="geometry" />
        </mxCell>
        <mxCell id="TRg9tI72QnR87t56-2dg-39" value="3" style="ellipse;whiteSpace=wrap;html=1;aspect=fixed;" vertex="1" parent="1">
          <mxGeometry x="608" y="432" width="20" height="20" as="geometry" />
        </mxCell>
        <mxCell id="TRg9tI72QnR87t56-2dg-40" value="&lt;b&gt;Topic&lt;/b&gt;&lt;div&gt;(arithmetic_argument)&lt;/div&gt;" style="text;html=1;align=center;verticalAlign=middle;whiteSpace=wrap;rounded=0;rotation=10;" vertex="1" parent="1">
          <mxGeometry x="210" y="300" width="125" height="30" as="geometry" />
        </mxCell>
        <mxCell id="TRg9tI72QnR87t56-2dg-41" value="&lt;b&gt;Service Request&lt;/b&gt;&lt;div&gt;(arithmetic_operator)&lt;/div&gt;" style="text;html=1;align=center;verticalAlign=middle;whiteSpace=wrap;rounded=0;rotation=330;" vertex="1" parent="1">
          <mxGeometry x="200" y="407" width="125" height="30" as="geometry" />
        </mxCell>
        <mxCell id="TRg9tI72QnR87t56-2dg-42" value="&lt;b&gt;Service Response&lt;/b&gt;&lt;div&gt;&lt;div&gt;(arithmetic_operator)&lt;/div&gt;&lt;/div&gt;" style="text;html=1;align=center;verticalAlign=middle;whiteSpace=wrap;rounded=0;rotation=328;" vertex="1" parent="1">
          <mxGeometry x="220" y="450" width="125" height="30" as="geometry" />
        </mxCell>
        <mxCell id="TRg9tI72QnR87t56-2dg-43" value="&lt;b&gt;Action&lt;/b&gt;&lt;div&gt;&lt;div&gt;(arithmetic_checker)&lt;/div&gt;&lt;/div&gt;" style="text;html=1;align=center;verticalAlign=middle;whiteSpace=wrap;rounded=0;rotation=0;" vertex="1" parent="1">
          <mxGeometry x="505.0017949732747" y="365.0006754569217" width="125" height="30" as="geometry" />
        </mxCell>
        <mxCell id="TRg9tI72QnR87t56-2dg-44" value="&lt;b&gt;1. Action Goal &lt;/b&gt;(Goal service)&lt;div&gt;&lt;b&gt;2. Action Feedback&lt;/b&gt; (Feedback topic)&lt;/div&gt;&lt;div&gt;&lt;b&gt;3. Action Result&lt;/b&gt; (Result service)&lt;/div&gt;" style="text;html=1;align=left;verticalAlign=middle;whiteSpace=wrap;rounded=0;rotation=0;" vertex="1" parent="1">
          <mxGeometry x="505" y="460" width="225" height="55" as="geometry" />
        </mxCell>
      </root>
    </mxGraphModel>
  </diagram>
</mxfile>
